<?xml version="1.0" encoding="UTF-8"?>
<svg id="Layer_2" xmlns="http://www.w3.org/2000/svg" width="216.458" height="233.96" viewBox="0 0 216.458 233.96">
  <g id="Layer_2-2" data-name="Layer_2">
    <path d="M.225,25.296c9.999,16.599,26.823,27.177,43.822,35.538,4.893,2.407,9.857,4.664,14.83,6.898l.358-2.742c-7.503,2.613-8.943,11.233-11.339,17.804-1.6,4.387-4.514,7.977-6.602,12.109-2.317,4.586-2.84,9.556-2.073,14.6.903,5.94,3.391,11.524,5.892,16.937l1.295-2.257c-4.665.348-9.29,1.169-13.768,2.531-3.795,1.155-8.881,2.476-11.028,6.149-1.975,3.38-1.482,8.024-.354,11.607,1.147,3.641,3.267,7.016,6.123,9.56,1.409,1.255,2.971,2.24,4.614,3.154,1.542.857,3.293,1.747,4.138,3.383,1.966,3.808-1.509,8.705-3.286,11.914-2.387,4.309-4.777,8.615-7.159,12.927-2.187,3.958-4.374,8.018-5.511,12.424-1.999,7.751.196,17.528,8.464,20.553v-2.893c-2.87,1.176-5.74,2.352-8.609,3.528-1.359.557-2.719,1.114-4.078,1.671-1.254.514-2.632.942-3.78,1.677-1.968,1.26-2.74,3.473-1.747,5.629,1.022,2.219,3.265,3.199,5.591,3.373,2.823.212,5.8-.31,8.611-.563,2.988-.269,5.972-.582,8.945-.984,2.993-.405,5.974-.901,8.923-1.561,2.12-.474,4.478-1.028,5.953-2.759,1.484-1.741,1.317-4.305-.41-5.807-1.678-1.459-4.141-1.819-6.289-1.808v3c12.444-1.273,24.966-1.622,37.462-1.045l-.399-2.946c-1.793.512-3.586,1.024-5.378,1.536-1.445.413-1.406,2.461,0,2.893,9.953,3.054,20.408,4.337,30.804,3.773,1.916-.104,1.945-2.978,0-3-3.229-.037-6.091,1.51-7.966,4.105-.547.757.005,2.025.896,2.203,10,2.003,20.03,3.848,30.088,5.533.973.163,2.338-.672,1.845-1.845-2.989-7.12-10.073-11.982-17.848-11.936l1.061,2.561c6.246-5.359,6.954-14.335,5.527-21.932-1.782-9.483-7.475-18.263-7.197-28.127.066-2.335.598-4.619,1.903-6.581,1.143-1.718,2.79-3.064,4.492-4.199,3.495-2.333,7.324-4.097,10.78-6.502,7.127-4.96,13.199-11.368,17.778-18.746,2.498-4.025,4.703-8.438,6.102-12.976.931-3.021.088-8.773-4.291-7.739l1.459,2.507c1.642-1.463,3.468-4.382,2.241-6.606-.658-1.192-2-1.678-3.303-1.547-1.841.184-3.716.848-5.5,1.327-7.316,1.965-14.511,4.356-21.557,7.135l1.845,1.845c1.646-8.413,3.098-16.893,4.992-25.254.848-3.744,1.943-7.475,3.925-10.79,1.878-3.142,4.518-5.715,6.762-8.583,2.33-2.979,3.982-6.235,4.945-9.9.986-3.75,1.373-7.64,1.85-11.479,1.047-8.423,2.032-16.868,2.341-25.356.342-9.424-.205-18.902-2.362-28.104-.211-.902-1.415-1.429-2.203-.896-8.381,5.657-12.633,15.141-15.821,24.395-1.98,5.749-3.714,11.585-5.208,17.479-1.469,5.795-2.83,11.674-3.62,17.605-.83,6.235-.716,12.592,1.998,18.38l2.59-1.514c-9.664-12.928-25.661-19.637-41.578-19.767-1.98-.016-3.961.073-5.931.268-2.069.204-4.588.905-6.491-.239-1.715-1.031-2.829-3.06-4.144-4.52-1.485-1.649-3.137-3.138-4.886-4.502-7.413-5.781-16.356-9.71-24.935-13.414-10.346-4.467-20.994-8.197-31.871-11.146-1.866-.506-2.662,2.387-.798,2.893,9.471,2.568,18.779,5.717,27.853,9.452,4.632,1.907,9.198,3.976,13.693,6.186,4.011,1.972,8.001,4.032,11.704,6.548,1.791,1.217,3.5,2.546,5.081,4.029s2.908,3.161,4.305,4.82c1.364,1.62,2.989,2.85,5.13,3.156,2.089.299,4.199-.174,6.282-.345,7.843-.643,15.788.388,23.189,3.068,8.143,2.949,15.597,8.059,20.807,15.029,1.149,1.538,3.422.259,2.59-1.514-2.245-4.788-2.346-10.185-1.775-15.351.612-5.539,1.913-11.042,3.233-16.448,1.374-5.627,2.969-11.199,4.782-16.7,1.509-4.578,3.131-9.143,5.377-13.419,2.427-4.619,5.591-8.888,9.957-11.835l-2.203-.896c3.816,16.28,2.286,33.146.295,49.566-.907,7.482-1.289,15.535-5.902,21.826-2.146,2.926-4.774,5.464-6.825,8.466-2.105,3.081-3.443,6.63-4.404,10.216-1.176,4.39-1.918,8.903-2.79,13.36-.942,4.813-1.883,9.625-2.825,14.438-.196.999.688,2.301,1.845,1.845,5.563-2.194,11.217-4.148,16.953-5.838,2.829-.833,5.676-1.612,8.541-2.311.28-.068,1.332-.353,1.43-.249.046.049-.028.489-.08.682-.256.944-.928,1.758-1.643,2.394-1.172,1.045.082,2.832,1.459,2.507.835-.197.889,1.989.873,2.511-.051,1.707-.923,3.439-1.556,4.997-1.535,3.773-3.508,7.381-5.781,10.758-4.515,6.707-10.412,12.523-17.211,16.901-6.634,4.271-15.287,7.254-16.646,16.123-1.425,9.301,3.309,18.24,5.911,26.892,2.32,7.715,3.164,17.803-3.601,23.608-1.01.866-.175,2.568,1.061,2.561,6.315-.037,12.491,3.862,14.956,9.734l1.845-1.845c-10.058-1.685-20.089-3.529-30.088-5.533l.896,2.203c1.248-1.728,3.271-2.643,5.376-2.62v-3c-10.153.551-20.285-.683-30.006-3.666v2.893c1.793-.512,3.586-1.024,5.378-1.536,1.657-.473,1.279-2.869-.399-2.946-12.496-.577-25.018-.227-37.462,1.045-1.879.192-1.972,3.01,0,3,1.326-.007,2.893.097,4.033.853s.654,1.803-.364,2.425c-1.621.99-3.759,1.232-5.587,1.599-2.182.438-4.379.799-6.584,1.101-4.599.63-9.231,1.009-13.857,1.385-1.703.139-4.051.556-5.516-.584-.482-.375-1.02-1.11-.915-1.761.131-.821,1.167-1.224,1.829-1.514,4.827-2.121,9.771-4.008,14.65-6.007,1.372-.562,1.463-2.358,0-2.893-6.652-2.434-7.92-10.848-6.369-16.862,1.074-4.164,3.141-7.967,5.208-11.707,2.187-3.957,4.381-7.91,6.571-11.864,1.959-3.538,4.355-7.177,4.76-11.299.379-3.848-1.807-6.662-4.975-8.529-1.546-.911-3.163-1.691-4.561-2.832-1.353-1.105-2.564-2.408-3.543-3.855-1.96-2.898-3.154-6.316-3.209-9.829-.034-2.19.39-4.44,2.235-5.833,1.812-1.367,4.214-2.074,6.34-2.783,4.699-1.568,9.571-2.546,14.511-2.914,1.195-.089,1.788-1.191,1.295-2.257-3.873-8.381-8.392-18.645-4.185-27.757,1.838-3.981,4.703-7.382,6.422-11.43,1.391-3.275,2.272-6.73,3.546-10.048,1.246-3.245,3.071-6.598,6.545-7.808,1.087-.379,1.633-2.169.358-2.742-17.003-7.638-34.706-15.678-48.002-29.119-3.661-3.701-6.886-7.781-9.573-12.241-.995-1.652-3.59-.145-2.59,1.514H.225Z"/>
    <path d="M66.354,79.014c-1.817-.755-3.903-.128-5.461.926-1.522,1.029-3.118,2.264-3.79,4.026-1.272,3.332,1.011,6.984,3.81,8.681,2.817,1.708,7.537,2.325,9.536-.88.466-.748.816-1.595,1.147-2.409.365-.895.635-1.905.557-2.88-.096-1.204-.847-2.146-2.094-2.251-1.021-.086-1.715.429-2.49,1.005-.119.088-.198.148-.273.175-.019.007-.172-.015-.092.007-.173-.047-.393-.161-.46-.263-.368-.562-.399-1.401-.275-1.882.021-.082.041-.164.069-.244.083-.244-.076.122.042-.101.059-.112.212-.25.05-.129-.005.004.22-.108.124-.074-.086.03.257.003.078-.004.192.008.13-.017.365.072.562.213,1.028,1.088,1.353,1.697.381.715,1.373.936,2.052.538.723-.423.921-1.335.538-2.052-.852-1.597-2.053-3.044-3.967-3.232-1.789-.175-3.247,1.102-3.614,2.813-.354,1.651-.094,3.593,1.167,4.814.608.588,1.404.944,2.242,1.024,1.073.102,1.824-.371,2.649-.978.134-.099.37-.295.385-.233l-.09.029c-.407-.043-.656-.255-.749-.638-.001,0,.003.446.003.45-.078.789-.463,1.561-.8,2.266-.221.463-.506,1.113-.796,1.352-.522.429-1.356.405-1.997.384-2.434-.081-5.038-1.737-5.673-4.205-.159-.62-.182-1.208.012-1.812.189-.587.806-1.133,1.368-1.602,1.209-1.009,2.673-2.166,4.28-1.499.748.311,1.65-.336,1.845-1.048.237-.863-.296-1.533-1.048-1.845h0Z"/>
    <path d="M114.573,92.783c-2.65-1.287-5.754-2.258-8.52-.697-2.621,1.479-3.128,4.736-2.778,7.478.387,3.034,2.404,5.346,5.238,6.41,1.379.518,2.919.686,4.384.585,1.634-.113,2.968-.665,3.509-2.331,1.005-3.095.409-6.7-1.062-9.533-.575-1.106-2.491-.9-2.742.358-.232,1.167-1.025,2.059-2.153,2.355-.424.111-1.071.124-1.562-.136-.253-.134-.36-.237-.485-.473-.042-.08-.077-.149-.105-.302-.003-.016.016-.258-.003-.164.154-.795-.224-1.619-1.048-1.845-.735-.202-1.69.248-1.845,1.048-.572,2.956,2.075,5.245,4.937,4.918,2.47-.282,4.662-2.12,5.156-4.603l-2.742.358c.927,1.785,1.304,3.854,1.051,5.854-.054.426-.133.873-.266,1.282-.017.053-.076.174-.07.171.213-.107-.364.034-.267.019-.911.138-2.094.062-3.059-.19-1.722-.449-3.246-1.579-3.74-3.321-.271-.956-.287-2.036-.17-3.005.098-.81.373-1.661,1.043-2.17.637-.484,1.522-.622,2.373-.58,1.19.059,2.354.589,3.411,1.102.728.354,1.621.198,2.052-.538.385-.658.194-1.697-.538-2.052h0Z"/>
    <path d="M84.153,96.633c.085.004.169.012.253.023l-.399-.054c.274.038.539.111.794.218l-.358-.151c.244.105.473.239.683.401l-.304-.235c.067.052.131.107.194.164.292.267.658.439,1.061.439.207.008.399-.035.578-.129.186-.06.347-.164.483-.31.262-.286.457-.661.439-1.061-.017-.388-.145-.791-.439-1.061-.222-.203-.464-.392-.718-.555-.258-.166-.538-.279-.821-.396-.456-.189-.955-.269-1.446-.294-.207-.008-.399.035-.578.129-.186.06-.347.164-.483.31-.146.136-.25.297-.31.483-.094.179-.137.371-.129.578.017.388.145.79.439,1.061l.304.235c.234.136.486.204.757.205h0Z"/>
    <path d="M67.111,100.492c1.359,2.508,4.001,3.828,6.769,4.084,3.334.309,6.541-1.22,9.399-2.749l-2.052-.538c3.938,5.93,11.076,9.413,18.19,8.597,1.531-.176,2.207-2.585.399-2.946-1.914-.382-3.758.269-5.095,1.693-1.39,1.48-2,3.437-2.875,5.225-1.611,3.29-3.758,6.283-6.367,8.855s-5.732,4.851-9.128,6.265c-.288.12-.653.297-.862.164-.258-.165-.474-1.021-.567-1.245-.426-1.036-.809-2.091-1.154-3.156-.644-1.99-1.151-4.025-1.517-6.084-.867-4.876-.883-9.929-.079-14.814.311-1.889-2.58-2.701-2.893-.798-1.475,8.962-.64,18.938,3.404,27.185,2.05,4.18,7.288.463,9.864-1.273,3.31-2.229,6.179-4.999,8.575-8.185,1.348-1.792,2.52-3.719,3.48-5.746.789-1.664,1.891-5.697,4.416-5.192l.399-2.946c-6.051.695-12.207-2.002-15.599-7.111-.461-.694-1.302-.939-2.052-.538-3.435,1.838-9.558,4.366-12.064-.259-.92-1.698-3.511-.185-2.59,1.514h0Z"/>
    <path d="M45.627,91.934c2.192.633,3.296,2.737,3.828,4.809.596,2.323.83,4.833.648,7.225-.308,4.058-2.988,8.624-7.608,8.21-1.922-.172-1.911,2.829,0,3,2.701.242,5.315-.966,7.188-2.872,2.108-2.145,3.09-4.991,3.384-7.937.298-2.979-.026-6.338-.94-9.194-.901-2.814-2.772-5.288-5.703-6.134-1.858-.537-2.652,2.357-.798,2.893h0Z"/>
    <path d="M120.916,114.085c-1.854.145-3.559.678-5.255,1.422-1.573.69-3.23,1.435-4.647,2.412-2.837,1.957-4.206,5.174-4.293,8.56-.049,1.898.295,3.836.8,5.66.473,1.712,1.382,3.103,3.194,3.563,3.518.893,6.975-1.232,9.101-3.885,2.408-3.005,4.21-6.81,3.913-10.741-.145-1.913-3.146-1.929-3,0,.251,3.321-1.286,6.637-3.44,9.108-1.079,1.238-2.417,2.311-4.069,2.627-.625.12-1.683.232-2.223-.202-.515-.414-.615-1.362-.76-1.958-.752-3.09-.969-6.926,1.424-9.399,1.155-1.193,2.817-1.874,4.289-2.588,1.566-.759,3.215-1.444,4.968-1.582,1.912-.15,1.928-3.151,0-3h0Z"/>
    <path d="M111.471,133.312c-3.792,3.855-8.669,6.408-13.983,7.389-.797.147-1.249,1.112-1.048,1.845.23.837,1.046,1.195,1.845,1.048,5.788-1.068,11.182-3.968,15.306-8.16,1.355-1.378-.765-3.5-2.121-2.121h0Z"/>
    <path d="M145.895,135.223c9.644-.306,19.303.076,28.889,1.176,4.66.535,9.331,1.19,13.876,2.376,4.403,1.149,8.593,2.893,12.623,4.993,4.452,2.32,8.698,5.009,12.935,7.696v-2.59c-3.029,1.887-6.051,3.787-8.868,5.985-2.705,2.11-5.083,4.525-7.266,7.165-2.113,2.555-4.065,5.239-6.176,7.796-.962,1.167-1.957,2.308-3.01,3.393-.574.591-1.165,1.166-1.777,1.718-.225.203-.494.552-.805.623-.397.091-1.38-.424-1.779-.543-7.144-2.125-14.564-3.161-21.905-4.352-3.862-.627-7.725-1.254-11.587-1.881-1.615-.262-3.197-.729-4.478.589-1.19,1.224-2.164,2.823-3.124,4.225-2.286,3.338-4.299,6.862-6.013,10.527-.172.367-.35.733-.512,1.104-.197.329-.214.37-.049.124-.239-.054-.479-.108-.718-.162-1.037-.234-2.074-.467-3.111-.701-2.233-.503-4.467-1.007-6.7-1.51-1.003-.226-1.824.449-1.899,1.446-.218,2.905.369,5.811.784,8.676.424,2.93.848,5.861,1.272,8.791l2.507-1.459c-2.953-3.801-7.934-2.213-11.973-3.011-1.886-.373-2.693,2.518-.798,2.893,2.131.421,4.242.218,6.391.348,1.648.1,3.212.545,4.258,1.892s2.69-.198,2.507-1.459c-.401-2.768-.801-5.535-1.202-8.303s-.958-5.56-.747-8.367l-1.899,1.446c1.914.431,3.829.863,5.743,1.294.957.216,1.914.431,2.872.647,1.014.229,2.165.666,3.213.533,1.52-.193,2.072-1.469,2.651-2.708.825-1.764,1.72-3.496,2.681-5.191.887-1.564,1.831-3.096,2.829-4.591.499-.748,1.011-1.487,1.537-2.216.303-.421,1.119-1.957,1.621-2.146.596-.225,1.882.235,2.525.339.966.157,1.931.313,2.897.47,2.092.34,4.184.679,6.276,1.019,7.511,1.219,15.111,2.244,22.446,4.324,1.542.437,3.43,1.44,4.985.564,1.425-.802,2.665-2.286,3.77-3.467,2.263-2.418,4.258-5.068,6.292-7.677,2.31-2.963,4.688-5.888,7.52-8.374,3.165-2.78,6.769-5.002,10.334-7.222.975-.607.962-1.98,0-2.59-7.657-4.855-15.454-9.756-24.198-12.408-4.577-1.388-9.315-2.128-14.049-2.738-4.906-.632-9.837-1.078-14.777-1.338-5.6-.295-11.209-.343-16.813-.166-1.926.061-1.934,3.061,0,3h0Z"/>
    <path d="M113.566,191.013l5.502.966c.999.175,1.831-.408,1.899-1.446.446-6.832-.255-13.695-2.048-20.302l-1.845,1.845c3.549.619,7.092,1.287,10.649,1.857,1.319.211,2.76.332,3.851-.596,1.186-1.009,1.182-2.612,1.289-4.044.5-6.658.52-13.445,3.079-19.724.728-1.787-2.173-2.565-2.893-.798-2.187,5.366-2.591,11.189-2.948,16.911-.089,1.428-.17,2.858-.291,4.284-.042.496.047.984-.46,1.131-.546.158-1.519-.178-2.041-.269-3.146-.549-6.293-1.097-9.439-1.646-1.097-.191-2.166.661-1.845,1.845,1.727,6.367,2.37,12.921,1.941,19.504l1.899-1.446-5.502-.966c-1.888-.331-2.699,2.559-.798,2.893h0Z"/>
    <path d="M46.479,126.568c4.492,1.083,8.807,2.736,12.84,4.996,1.958,1.097,3.814,2.339,5.629,3.657,1.742,1.266,3.558,2.48,5.737,2.781l-.662-2.507c-.832,1.032-.933,2.176-.216,3.328.322.518.753.925,1.246,1.278.266.191,1.106.576,1.087.94l1.899-1.446c-1.488-.287-2.829-.11-4.167.613-.907.49-.904,1.652-.304,2.356.795.932,1.432,1.946,1.978,3.041l1.295-2.257c-1.489.023-3.962-.369-4.495,1.525-.194.691.034,1.368.304,1.998.451,1.055.95,2.093,1.425,3.138l1.694-2.203c-1.423-.574-3.124-.138-4.183.954-.582.601-.875,1.358-.986,2.175-.107.788.16,1.802-.228,2.51l2.356-.304c-1.835-1.865-4.468-2.914-7.094-2.687-3.065.265-5.05,2.336-7.714,3.568-2.819,1.303-6.057,1.412-9.107,1.489-3.596.091-7.192.029-10.784-.167-1.929-.105-1.923,2.895,0,3,3.265.178,6.534.247,9.803.188,2.939-.053,5.949-.132,8.806-.894,1.368-.364,2.708-.906,3.926-1.629,1.122-.667,2.152-1.512,3.341-2.062,2.281-1.054,4.964-.449,6.701,1.316.664.674,1.892.542,2.356-.304.595-1.086.515-2.088.575-3.275.045-.894.538-1.347,1.434-.985,1.355.547,2.166-1.164,1.694-2.203-.204-.448-.407-.897-.611-1.345-.182-.402-.378-1.225-.691-1.529-.172-.54-.443-.286-.81.762l.686-.011,1.602-.025c1.189-.019,1.799-1.246,1.295-2.257-.662-1.327-1.486-2.521-2.447-3.649l-.304,2.356c.594-.321,1.189-.44,1.856-.311.988.191,1.845-.42,1.899-1.446.05-.951-.355-1.754-1.03-2.407-.338-.327-.748-.571-1.127-.846-.187-.098-.354-.223-.5-.375-.178-.387-.291-.319-.338.204.61-.756.582-2.336-.662-2.507-2.218-.306-3.914-1.686-5.678-2.958-1.834-1.322-3.747-2.527-5.738-3.598-4.031-2.169-8.341-3.805-12.79-4.878-1.876-.452-2.677,2.44-.798,2.893h0Z"/>
  </g>
</svg>